<?xml version="1.0" encoding="UTF-8" standalone="no"?>
<svg
   xmlns="http://www.w3.org/2000/svg"
   width="75"
   height="10"
   version="1.1">
  <g transform="translate(3.1468532,0.59003497)">
    <g transform="matrix(0,1.25,1.25,0,11.666872,4.446747)">
      <path
         style="fill:#1d1d1b;stroke:none"
         d="m 0,0 c -1.137,0.473 -2.021,0.432 -2.653,-0.12 -0.629,-0.553 -0.945,-1.595 -0.945,-3.128 l 0,-5.186 1.139,-0.468 0,3.57 c 0,1.823 0.915,2.35 2.43,1.721 0.876,-0.362 1.681,-0.683 2.039,-1.441 0.329,-0.694 0.425,-1.411 0.425,-2.686 l -0.004,-1.653 -2.948,1.235 0,-1.556 4.198,-1.752 0,4.7 c 0,1.318 -0.121,2.359 -0.368,3.124 -0.271,0.841 -0.716,1.595 -1.34,2.26 C 1.382,-0.76 0.723,-0.3 0,0"/>
    </g>
    <g transform="matrix(0,1.25,1.25,0,48.580672,5.404257)">
      <path
         style="fill:#1d1d1b;stroke:none"
         d="M 0,0 -3.096,3.159 0,3.815 0,0 z m 0.012,-26.854 -2.962,3.076 2.962,0.555 0,-3.631 z m -4.385,29.742 0.007,0.002 0,-1.926 6.974,-7.4 -6.972,2.893 0,-3.172 3.023,-3.832 1.632,-1.973 0,-0.09 -2.377,0.929 -2.278,-1.132 0,-3.188 6.986,-2.896 -6.986,-1.668 0,-3.492 7.279,-7.712 0,1.926 -1.903,1.972 0,4.859 1.903,0.387 0,5.163 -4.499,1.868 c -0.226,0.093 -0.486,0.183 -0.778,0.27 0.237,0.01 0.487,0.073 0.748,0.188 l 3.754,1.64 0,0.279 -3.74,4.697 c -0.14,0.175 -0.393,0.441 -0.762,0.798 0.342,-0.181 0.599,-0.308 0.778,-0.384 l 4.499,-1.866 0,3.41 0,3.594 L 1,-1.02 l 0,5.047 1.912,0.406 0,1.774 -7.285,-1.729 0,-1.59"/>
    </g>
    <g transform="matrix(0,1.25,1.25,0,71.343172,-0.05076301)">
      <path
         style="fill:#1d1d1b;stroke:none"
         d="m 0,0 0,-5.187 c 0,-1.532 0.316,-2.835 0.945,-3.911 0.632,-1.076 1.516,-1.848 2.653,-2.321 0.723,-0.3 1.382,-0.386 1.973,-0.257 0.624,0.151 1.07,0.533 1.34,1.147 0.247,0.563 0.368,1.505 0.368,2.822 l 0,4.689 -1.155,0.466 0,-2.64 c 0,-1.275 -0.167,-2.122 -0.496,-2.543 -0.355,-0.463 -1.182,-0.411 -2.059,-0.05 -1.515,0.629 -2.458,1.946 -2.458,3.768 l 0,2.045 1.137,-0.469 0,1.556 -2.184,0.906 0,-0.046 L 0,0"/>
    </g>
  </g>
</svg>
